# xmcd
#
# Track frame offsets: 
#        150
#        15272
#        29020
#        42509
#        61904
#        75502
#        89028
#        101879
#        114068
#        128620
#
# Disc length: 1870 seconds
#
# Revision: 0
# Processed by: cddbd v1.5.2PL0 Copyright (c) Steve Scherf et al.
# Submitted via: ExactAudioCopyFreeDBPlugin 1.0
#
DISCID=76074c0a
DTITLE=Jackson 5 - Boogie
DYEAR=1979
DGENRE=Pop
TTITLE0=Love's Gone Bad
TTITLE1=I Ain't Gonna Eat Out My Heart Anymore
TTITLE2=ABC
TTITLE3=I Was Made To Love Her
TTITLE4=One Day I'll Marry You
TTITLE5=Never Can Say Goobye
TTITLE6=Oh, I've Been Bless'd
TTITLE7=Penny Arcade
TTITLE8=Just Because I Love You
TTITLE9=Dancing Maschine
EXTD=
EXTT0=
EXTT1=
EXTT2=
EXTT3=
EXTT4=
EXTT5=
EXTT6=
EXTT7=
EXTT8=
EXTT9=
PLAYORDER=
